# Blender v2.92.0 OBJ File: 'piece_100.blend'
# www.blender.org
mtllib piece_100.mtl
o Cube.015_Cube.016
v 0.845977 0.845976 -1.000000
v 0.922888 0.845976 -0.979423
v 0.845977 0.922887 -0.979423
v 0.845977 -0.845977 -1.000000
v -0.845976 0.845976 -1.000000
v -0.845976 0.922887 -0.979423
v -0.922887 0.845976 -0.979423
v -0.845976 -0.845977 -1.000000
v -0.922887 -0.845977 -0.979423
v -0.845976 -0.922888 -0.979423
v -0.919632 -0.919633 -0.959435
v -0.845976 -0.979424 -0.922887
v 0.845977 -0.922888 -0.979423
v 0.845977 -0.979424 -0.922887
v 0.919633 -0.919633 -0.959435
v 0.919633 -0.959436 -0.919632
v 0.922888 -0.845977 -0.979423
v 0.959436 -0.919633 -0.919632
v 0.979423 -0.845977 -0.922887
v 0.979423 -0.922888 -0.845976
v 1.000000 -0.845977 -0.845976
v 0.922888 -0.979424 -0.845976
v 0.979423 -0.922888 0.845977
v 1.000000 -0.845977 0.845977
v 0.959436 -0.919633 0.919633
v 0.922888 -0.979424 0.845977
v 0.845977 -1.000000 0.845977
v 0.919633 -0.959436 0.919633
v 0.845977 -0.979424 0.922888
v 0.919633 -0.919633 0.959435
v 0.922888 -0.845977 0.979423
v 0.845977 -0.922888 0.979423
v 0.845977 -0.845977 1.000000
v -0.845976 -0.922888 0.979423
v -0.845976 -0.979424 0.922888
v -0.919632 -0.919633 0.959435
v -0.845976 -0.845977 1.000000
v -0.922887 -0.845977 0.979423
v -0.845976 0.845976 1.000000
v -0.922887 0.845976 0.979423
v -0.845976 0.922887 0.979423
v 0.845977 0.845976 1.000000
v 0.845977 0.922887 0.979423
v 0.922888 0.845976 0.979423
v 0.919633 0.919632 0.959435
v 0.979423 0.845976 0.922888
v 1.000000 0.845976 0.845977
v 0.959436 0.919632 0.919633
v 0.979423 -0.845977 0.922888
v 0.979423 0.922887 0.845977
v 0.919633 0.959435 0.919633
v 0.922888 0.979422 0.845977
v 0.845977 0.979422 0.922888
v 0.845977 0.999999 0.845977
v -0.845976 0.979422 0.922888
v -0.919632 0.959435 0.919633
v -0.845976 0.999999 0.845977
v -0.922887 0.979422 0.845977
v -0.845976 0.999999 -0.845976
v -0.922887 0.979422 -0.845976
v -0.845976 0.979422 -0.922887
v 0.845977 0.999999 -0.845976
v 0.845977 0.979422 -0.922887
v 0.922888 0.979422 -0.845976
v 0.919633 0.959435 -0.919632
v 0.979423 0.922887 -0.845976
v 0.959436 0.919632 -0.919632
v 1.000000 0.845976 -0.845976
v 0.979423 0.845976 -0.922887
v 0.919633 0.919632 -0.959435
v -0.919632 0.959435 -0.919632
v -0.959435 0.919632 -0.919632
v -0.919632 0.919632 -0.959435
v -0.979423 0.845976 -0.922887
v -0.979423 0.922887 -0.845976
v -1.000000 0.845976 -0.845976
v -0.979423 0.922887 0.845977
v -1.000000 0.845976 0.845977
v -0.959435 0.919632 0.919633
v -0.979423 0.845976 0.922888
v -0.919632 0.919632 0.959435
v -0.979423 -0.845977 0.922888
v -0.959435 -0.919633 0.919633
v -1.000000 -0.845977 0.845977
v -0.979423 -0.922888 0.845977
v -1.000000 -0.845977 -0.845976
v -0.979423 -0.922888 -0.845976
v -0.979423 -0.845977 -0.922887
v -0.959435 -0.919633 -0.919632
v -0.919632 -0.959436 -0.919632
v -0.922887 -0.979424 -0.845976
v -0.845976 -1.000000 -0.845976
v -0.922887 -0.979424 0.845977
v -0.845976 -1.000000 0.845977
v -0.919632 -0.959436 0.919633
v 0.845977 -1.000000 -0.845976
vt 0.394253 0.519253
vt 0.605747 0.519253
vt 0.605747 0.730747
vt 0.394253 0.730747
vt 0.394253 0.769253
vt 0.605747 0.769253
vt 0.605747 0.980747
vt 0.394253 0.980747
vt 0.144253 0.519253
vt 0.355747 0.519253
vt 0.355747 0.730747
vt 0.144253 0.730747
vt 0.605747 0.490361
vt 0.394253 0.490361
vt 0.394253 0.480747
vt 0.605747 0.480747
vt 0.615361 0.480747
vt 0.614954 0.489954
vt 0.615361 0.269253
vt 0.605747 0.269253
vt 0.394253 0.269253
vt 0.605747 0.259639
vt 0.614954 0.260046
vt 0.394253 0.259639
vt 0.384639 0.269253
vt 0.385046 0.260046
vt 0.384639 0.480747
vt 0.144253 0.502572
vt 0.144253 0.500000
vt 0.135046 0.500000
vt 0.135046 0.505071
vt 0.355747 0.509639
vt 0.144253 0.509639
vt 0.144253 0.500000
vt 0.355747 0.500000
vt 0.364954 0.500000
vt 0.364954 0.510046
vt 0.385046 0.489954
vt 0.375000 0.510046
vt 0.394253 0.500000
vt 0.385046 0.500000
vt 0.384639 0.519253
vt 0.385046 0.510046
vt 0.394253 0.509639
vt 0.375000 0.519253
vt 0.375000 0.510046
vt 0.384639 0.730747
vt 0.365361 0.730747
vt 0.365361 0.519253
vt 0.394253 0.740361
vt 0.385046 0.739954
vt 0.375000 0.730747
vt 0.375000 0.739954
vt 0.364954 0.739954
vt 0.355747 0.740361
vt 0.384639 0.769253
vt 0.375000 0.769253
vt 0.375000 0.760046
vt 0.385046 0.760046
vt 0.385046 0.750000
vt 0.375000 0.739954
vt 0.394253 0.759639
vt 0.394253 0.750000
vt 0.384639 0.980747
vt 0.375000 0.980747
vt 0.377572 0.980747
vt 0.375000 0.980747
vt 0.375000 0.989954
vt 0.380071 0.989954
vt 0.394253 0.990361
vt 0.385046 0.989954
vt 0.605747 0.990361
vt 0.615361 0.980747
vt 0.614954 0.989954
vt 0.615361 0.769253
vt 0.605747 0.759639
vt 0.614954 0.760046
vt 0.605747 0.750000
vt 0.614954 0.750000
vt 0.605747 0.740361
vt 0.615361 0.730747
vt 0.614954 0.739954
vt 0.625000 0.730747
vt 0.625000 0.739954
vt 0.614954 0.750000
vt 0.644253 0.730747
vt 0.644253 0.740361
vt 0.635046 0.739954
vt 0.634639 0.730747
vt 0.622428 0.769253
vt 0.625000 0.769253
vt 0.625000 0.760046
vt 0.619929 0.760046
vt 0.855747 0.730747
vt 0.855747 0.740361
vt 0.625000 0.769253
vt 0.625000 0.980747
vt 0.625000 0.989954
vt 0.865361 0.730747
vt 0.864954 0.739954
vt 0.855747 0.519253
vt 0.865361 0.519253
vt 0.644253 0.519253
vt 0.855747 0.509639
vt 0.864954 0.510046
vt 0.644253 0.509639
vt 0.634639 0.519253
vt 0.635046 0.510046
vt 0.625000 0.519253
vt 0.625000 0.510046
vt 0.615361 0.519253
vt 0.605747 0.509639
vt 0.614954 0.510046
vt 0.605747 0.500000
vt 0.614954 0.500000
vt 0.625000 0.489954
vt 0.614954 0.500000
vt 0.625000 0.480747
vt 0.625000 0.269253
vt 0.622428 0.269253
vt 0.625000 0.269253
vt 0.625000 0.260046
vt 0.619929 0.260046
vt 0.615361 0.230747
vt 0.625000 0.230747
vt 0.625000 0.239954
vt 0.614954 0.239954
vt 0.614954 0.244929
vt 0.614954 0.250000
vt 0.605747 0.250000
vt 0.605747 0.230747
vt 0.605747 0.240361
vt 0.615361 0.019253
vt 0.605747 0.019253
vt 0.625000 0.019253
vt 0.605747 0.009639
vt 0.614954 0.010046
vt 0.622428 0.019253
vt 0.625000 0.019253
vt 0.625000 0.010046
vt 0.619929 0.010046
vt 0.605747 0.997428
vt 0.605747 1.000000
vt 0.614954 1.000000
vt 0.614954 0.994929
vt 0.394253 0.009639
vt 0.394253 0.019253
vt 0.605747 1.000000
vt 0.394253 1.000000
vt 0.385046 1.000000
vt 0.384639 0.019253
vt 0.385046 0.010046
vt 0.384639 0.230747
vt 0.394253 0.230747
vt 0.394253 0.240361
vt 0.385046 0.239954
vt 0.394253 0.250000
vt 0.385046 0.250000
vt 0.134639 0.519253
vt 0.125000 0.519253
vt 0.125000 0.510046
vt 0.135046 0.510046
vt 0.375000 0.239954
vt 0.134639 0.730747
vt 0.125000 0.730747
vt 0.144253 0.740361
vt 0.135046 0.739954
vt 0.127572 0.730747
vt 0.125000 0.730747
vt 0.125000 0.739954
vt 0.130071 0.739954
vn 1.0000 0.0000 0.0000
vn 0.0000 0.0000 1.0000
vn 0.0000 -1.0000 0.0000
vn 0.2585 0.0000 -0.9660
vn 0.2566 0.2566 -0.9318
vn 0.0000 0.2585 -0.9660
vn 0.0000 0.0000 -1.0000
vn -0.2566 0.2566 -0.9318
vn -0.2585 0.0000 -0.9660
vn -0.2566 -0.2566 -0.9318
vn 0.0000 -0.2585 -0.9660
vn -0.2178 -0.6901 -0.6901
vn 0.0000 -0.7071 -0.7071
vn 0.2178 -0.6901 -0.6901
vn 0.2566 -0.2566 -0.9318
vn 0.5774 -0.5773 -0.5774
vn 0.6901 -0.2178 -0.6901
vn 0.9318 -0.2566 -0.2566
vn 0.6901 -0.6901 -0.2178
vn 0.9660 -0.2585 0.0000
vn 0.7071 -0.7071 0.0000
vn 0.9318 -0.2566 0.2566
vn 0.6901 -0.6901 0.2178
vn 0.2585 -0.9660 0.0000
vn 0.2566 -0.9318 0.2566
vn 0.2178 -0.6901 0.6901
vn 0.5773 -0.5773 0.5774
vn 0.2566 -0.2566 0.9318
vn 0.6901 -0.2178 0.6901
vn 0.0000 -0.2585 0.9660
vn 0.0000 -0.7071 0.7071
vn -0.2178 -0.6901 0.6901
vn -0.2566 -0.2566 0.9318
vn -0.2585 0.0000 0.9660
vn -0.2566 0.2566 0.9318
vn 0.0000 0.2585 0.9660
vn 0.2566 0.2566 0.9318
vn 0.2585 0.0000 0.9660
vn 0.6901 0.2178 0.6901
vn 0.7071 0.0000 0.7071
vn 0.9660 0.0000 0.2585
vn 0.9318 0.2566 0.2566
vn 0.6901 0.6901 0.2178
vn 0.5774 0.5773 0.5773
vn 0.2566 0.9318 0.2566
vn 0.2178 0.6901 0.6901
vn 0.0000 0.9660 0.2585
vn 0.0000 0.7071 0.7071
vn -0.2178 0.6901 0.6901
vn -0.2566 0.9318 0.2566
vn -0.2585 0.9660 0.0000
vn 0.0000 1.0000 0.0000
vn -0.2566 0.9318 -0.2566
vn 0.0000 0.9660 -0.2585
vn 0.2566 0.9318 -0.2566
vn 0.2585 0.9660 0.0000
vn 0.6901 0.6901 -0.2178
vn 0.7071 0.7071 0.0000
vn 0.9318 0.2566 -0.2566
vn 0.9660 0.2585 0.0000
vn 0.9660 0.0000 -0.2585
vn 0.6901 0.2178 -0.6901
vn 0.7071 0.0000 -0.7071
vn 0.5774 0.5773 -0.5773
vn 0.2178 0.6901 -0.6901
vn 0.0000 0.7071 -0.7071
vn -0.2178 0.6901 -0.6901
vn -0.6901 0.6901 -0.2178
vn -0.5773 0.5774 -0.5773
vn -0.6901 0.2178 -0.6901
vn -0.9318 0.2566 -0.2566
vn -0.9660 0.2585 0.0000
vn -0.7071 0.7071 0.0000
vn -0.9318 0.2566 0.2566
vn -0.6901 0.6901 0.2178
vn -0.6901 0.2178 0.6901
vn -0.5774 0.5774 0.5774
vn -0.9660 0.0000 0.2585
vn -0.7071 0.0000 0.7071
vn -0.6901 -0.2178 0.6901
vn -0.9318 -0.2566 0.2566
vn -0.9660 -0.2585 0.0000
vn -1.0000 0.0000 0.0000
vn -0.9318 -0.2566 -0.2566
vn -0.9660 0.0000 -0.2585
vn -0.6901 -0.2178 -0.6901
vn -0.7071 0.0000 -0.7071
vn -0.6901 -0.6901 -0.2178
vn -0.5773 -0.5774 -0.5773
vn -0.2566 -0.9318 -0.2566
vn -0.2585 -0.9660 0.0000
vn -0.7071 -0.7071 0.0000
vn -0.2566 -0.9318 0.2566
vn -0.6901 -0.6901 0.2178
vn -0.5773 -0.5774 0.5774
vn 0.0000 -0.9660 0.2585
vn 0.0000 -0.9660 -0.2585
vn 0.2566 -0.9318 -0.2566
usemtl Blue.008
s off
f 21/1/1 68/2/1 47/3/1 24/4/1
usemtl Red.008
f 33/5/2 42/6/2 39/7/2 37/8/2
usemtl Yellow.008
f 92/9/3 96/10/3 27/11/3 94/12/3
usemtl Inner.008
f 2/13/4 17/14/4 4/15/4 1/16/4
f 1/16/5 3/17/5 70/18/5 2/13/5
f 6/19/6 3/17/6 1/16/6 5/20/6
f 8/21/7 5/20/7 1/16/7 4/15/7
f 5/20/8 7/22/8 73/23/8 6/19/8
f 5/20/9 8/21/9 9/24/9 7/22/9
f 8/21/10 10/25/10 11/26/10 9/24/10
f 13/27/11 10/25/11 8/21/11 4/15/11
f 10/28/12 12/29/12 90/30/12 11/31/12
f 14/32/13 12/33/13 10/34/13 13/35/13
f 14/32/14 13/35/14 15/36/14 16/37/14
f 4/15/15 17/14/15 15/38/15 13/27/15
f 16/37/16 15/36/16 18/39/16
f 17/14/17 19/40/17 18/41/17 15/38/17
f 21/1/18 20/42/18 18/43/18 19/44/18
f 20/42/19 22/45/19 16/46/19 18/43/19
f 23/47/20 20/42/20 21/1/20 24/4/20
f 26/48/21 22/49/21 20/42/21 23/47/21
f 24/4/22 49/50/22 25/51/22 23/47/22
f 26/48/23 23/52/23 25/53/23 28/54/23
f 27/11/24 96/10/24 22/49/24 26/48/24
f 27/11/25 26/48/25 28/54/25 29/55/25
f 32/56/26 29/57/26 28/58/26 30/59/26
f 25/51/27 30/60/27 28/61/27
f 33/5/28 32/56/28 30/59/28 31/62/28
f 49/50/29 31/63/29 30/60/29 25/51/29
f 34/64/30 32/56/30 33/5/30 37/8/30
f 35/65/31 29/57/31 32/56/31 34/64/31
f 35/66/32 34/67/32 36/68/32 95/69/32
f 37/8/33 38/70/33 36/71/33 34/64/33
f 37/8/34 39/7/34 40/72/34 38/70/34
f 39/7/35 41/73/35 81/74/35 40/72/35
f 43/75/36 41/73/36 39/7/36 42/6/36
f 42/6/37 44/76/37 45/77/37 43/75/37
f 42/6/38 33/5/38 31/62/38 44/76/38
f 44/76/39 46/78/39 48/79/39 45/77/39
f 44/76/40 31/62/40 49/50/40 46/80/40
f 46/80/41 49/50/41 24/4/41 47/3/41
f 47/3/42 50/81/42 48/82/42 46/80/42
f 50/81/43 52/83/43 51/84/43 48/82/43
f 48/82/44 51/84/44 45/85/44
f 54/86/45 53/87/45 51/88/45 52/89/45
f 53/90/46 43/91/46 45/92/46 51/93/46
f 54/86/47 57/94/47 55/95/47 53/87/47
f 53/96/48 55/97/48 41/73/48 43/75/48
f 41/73/49 55/97/49 56/98/49 81/74/49
f 57/94/50 58/99/50 56/100/50 55/95/50
f 57/94/51 59/101/51 60/102/51 58/99/51
f 62/103/52 59/101/52 57/94/52 54/86/52
f 59/101/53 61/104/53 71/105/53 60/102/53
f 59/101/54 62/103/54 63/106/54 61/104/54
f 62/103/55 64/107/55 65/108/55 63/106/55
f 62/103/56 54/86/56 52/89/56 64/107/56
f 64/107/57 66/109/57 67/110/57 65/108/57
f 64/107/58 52/89/58 50/81/58 66/111/58
f 68/2/59 69/112/59 67/113/59 66/111/59
f 66/111/60 50/81/60 47/3/60 68/2/60
f 68/2/61 21/1/61 19/44/61 69/112/61
f 69/112/62 2/114/62 70/115/62 67/113/62
f 69/112/63 19/44/63 17/14/63 2/13/63
f 70/18/64 65/116/64 67/117/64
f 3/17/65 63/118/65 65/116/65 70/18/65
f 61/119/66 63/118/66 3/17/66 6/19/66
f 61/120/67 6/121/67 73/122/67 71/123/67
f 75/124/68 60/125/68 71/126/68 72/127/68
f 73/128/69 72/129/69 71/126/69
f 7/22/70 74/130/70 72/129/70 73/23/70
f 76/131/71 75/124/71 72/127/71 74/132/71
f 77/133/72 75/124/72 76/131/72 78/134/72
f 58/135/73 60/125/73 75/124/73 77/133/73
f 78/134/74 80/136/74 79/137/74 77/133/74
f 58/138/75 77/139/75 79/140/75 56/141/75
f 80/142/76 40/143/76 81/144/76 79/145/76
f 79/145/77 81/144/77 56/98/77
f 82/146/78 80/136/78 78/134/78 84/147/78
f 38/70/79 40/72/79 80/148/79 82/149/79
f 38/70/80 82/149/80 83/150/80 36/71/80
f 84/147/81 85/151/81 83/152/81 82/146/81
f 87/153/82 85/151/82 84/147/82 86/154/82
f 84/147/83 78/134/83 76/131/83 86/154/83
f 86/154/84 88/155/84 89/156/84 87/153/84
f 74/132/85 88/155/85 86/154/85 76/131/85
f 88/155/86 9/157/86 11/158/86 89/156/86
f 7/22/87 9/24/87 88/155/87 74/132/87
f 91/159/88 87/160/88 89/161/88 90/162/88
f 89/156/89 11/158/89 90/163/89
f 92/9/90 91/159/90 90/162/90 12/33/90
f 92/9/91 94/12/91 93/164/91 91/159/91
f 91/159/92 93/164/92 85/165/92 87/160/92
f 94/12/93 35/166/93 95/167/93 93/164/93
f 85/168/94 93/169/94 95/170/94 83/171/94
f 95/69/95 36/68/95 83/150/95
f 94/12/96 27/11/96 29/55/96 35/166/96
f 96/10/97 92/9/97 12/33/97 14/32/97
f 96/10/98 14/32/98 16/37/98 22/49/98
