# Blender v2.92.0 OBJ File: 'piece_011.blend'
# www.blender.org
mtllib piece_011.mtl
o Cube.010_Cube.011
v 0.845976 0.845977 -1.000000
v 0.922887 0.845977 -0.979423
v 0.845976 0.922888 -0.979423
v 0.845976 -0.845976 -1.000000
v -0.845977 0.845977 -1.000000
v -0.845977 0.922888 -0.979423
v -0.922887 0.845977 -0.979423
v -0.845977 -0.845976 -1.000000
v -0.922887 -0.845976 -0.979423
v -0.845977 -0.922887 -0.979423
v -0.919633 -0.919632 -0.959435
v -0.845977 -0.979423 -0.922887
v 0.845976 -0.922887 -0.979423
v 0.845976 -0.979423 -0.922887
v 0.919632 -0.919632 -0.959435
v 0.919632 -0.959435 -0.919633
v 0.922887 -0.845976 -0.979423
v 0.959435 -0.919632 -0.919633
v 0.979423 -0.845976 -0.922887
v 0.979423 -0.922887 -0.845977
v 1.000000 -0.845976 -0.845977
v 0.922887 -0.979423 -0.845977
v 0.979423 -0.922887 0.845976
v 1.000000 -0.845976 0.845976
v 0.959435 -0.919632 0.919632
v 0.922887 -0.979423 0.845976
v 0.845976 -1.000000 0.845976
v 0.919632 -0.959435 0.919632
v 0.845976 -0.979423 0.922887
v 0.919632 -0.919632 0.959435
v 0.922887 -0.845976 0.979423
v 0.845976 -0.922887 0.979423
v 0.845976 -0.845976 1.000000
v -0.845977 -0.922887 0.979423
v -0.845977 -0.979423 0.922887
v -0.919633 -0.919632 0.959435
v -0.845977 -0.845976 1.000000
v -0.922887 -0.845976 0.979423
v -0.845977 0.845977 1.000000
v -0.922887 0.845977 0.979423
v -0.845977 0.922888 0.979423
v 0.845976 0.845977 1.000000
v 0.845976 0.922888 0.979423
v 0.922887 0.845977 0.979423
v 0.919632 0.919633 0.959435
v 0.979423 0.845977 0.922887
v 1.000000 0.845977 0.845976
v 0.959435 0.919633 0.919632
v 0.979423 -0.845976 0.922887
v 0.979423 0.922888 0.845976
v 0.919632 0.959435 0.919632
v 0.922887 0.979423 0.845976
v 0.845976 0.979423 0.922887
v 0.845976 1.000000 0.845976
v -0.845977 0.979423 0.922887
v -0.919633 0.959435 0.919632
v -0.845977 1.000000 0.845976
v -0.922887 0.979423 0.845976
v -0.845977 1.000000 -0.845977
v -0.922887 0.979423 -0.845977
v -0.845977 0.979423 -0.922887
v 0.845976 1.000000 -0.845977
v 0.845976 0.979423 -0.922887
v 0.922887 0.979423 -0.845977
v 0.919632 0.959435 -0.919633
v 0.979423 0.922888 -0.845977
v 0.959435 0.919633 -0.919633
v 1.000000 0.845977 -0.845977
v 0.979423 0.845977 -0.922887
v 0.919632 0.919633 -0.959435
v -0.919633 0.959435 -0.919633
v -0.959435 0.919633 -0.919633
v -0.919633 0.919633 -0.959435
v -0.979423 0.845977 -0.922887
v -0.979423 0.922888 -0.845977
v -1.000000 0.845977 -0.845977
v -0.979423 0.922888 0.845976
v -1.000000 0.845977 0.845976
v -0.959435 0.919633 0.919632
v -0.979423 0.845977 0.922887
v -0.919633 0.919633 0.959435
v -0.979423 -0.845976 0.922887
v -0.959435 -0.919632 0.919632
v -1.000000 -0.845976 0.845976
v -0.979423 -0.922887 0.845976
v -1.000000 -0.845976 -0.845977
v -0.979423 -0.922887 -0.845977
v -0.979423 -0.845976 -0.922887
v -0.959435 -0.919632 -0.919633
v -0.919633 -0.959435 -0.919633
v -0.922887 -0.979423 -0.845977
v -0.845977 -1.000000 -0.845977
v -0.922887 -0.979423 0.845976
v -0.845977 -1.000000 0.845976
v -0.919633 -0.959435 0.919632
v 0.845976 -1.000000 -0.845977
vt 0.644253 0.519253
vt 0.855747 0.519253
vt 0.855747 0.730747
vt 0.644253 0.730747
vt 0.394253 0.269253
vt 0.605747 0.269253
vt 0.605747 0.480747
vt 0.394253 0.480747
vt 0.394253 0.019253
vt 0.605747 0.019253
vt 0.605747 0.230747
vt 0.394253 0.230747
vt 0.605747 0.490361
vt 0.394253 0.490361
vt 0.615361 0.480747
vt 0.614954 0.489954
vt 0.615361 0.269253
vt 0.605747 0.259639
vt 0.614954 0.260046
vt 0.394253 0.259639
vt 0.384639 0.269253
vt 0.385046 0.260046
vt 0.384639 0.480747
vt 0.375000 0.269253
vt 0.375000 0.260046
vt 0.375000 0.480747
vt 0.377572 0.480747
vt 0.375000 0.480747
vt 0.375000 0.489954
vt 0.380071 0.489954
vt 0.385046 0.489954
vt 0.385046 0.500000
vt 0.394253 0.500000
vt 0.394253 0.519253
vt 0.384639 0.519253
vt 0.385046 0.510046
vt 0.394253 0.509639
vt 0.375000 0.519253
vt 0.375000 0.510046
vt 0.384639 0.730747
vt 0.394253 0.730747
vt 0.365361 0.730747
vt 0.365361 0.519253
vt 0.394253 0.740361
vt 0.385046 0.739954
vt 0.375000 0.730747
vt 0.375000 0.739954
vt 0.364954 0.739954
vt 0.355747 0.730747
vt 0.355747 0.519253
vt 0.355747 0.740361
vt 0.355747 0.747428
vt 0.355747 0.750000
vt 0.364954 0.750000
vt 0.364954 0.744929
vt 0.385046 0.755071
vt 0.385046 0.750000
vt 0.375000 0.760046
vt 0.394253 0.769253
vt 0.384639 0.769253
vt 0.385046 0.760046
vt 0.394253 0.759639
vt 0.394253 0.750000
vt 0.384639 0.980747
vt 0.394253 0.980747
vt 0.144253 0.740361
vt 0.355747 0.750000
vt 0.144253 0.750000
vt 0.135046 0.750000
vt 0.135046 0.739954
vt 0.394253 0.990361
vt 0.385046 0.989954
vt 0.605747 0.980747
vt 0.605747 0.990361
vt 0.605747 0.769253
vt 0.615361 0.980747
vt 0.614954 0.989954
vt 0.615361 0.769253
vt 0.605747 0.759639
vt 0.614954 0.760046
vt 0.605747 0.750000
vt 0.614954 0.750000
vt 0.605747 0.740361
vt 0.605747 0.730747
vt 0.615361 0.730747
vt 0.614954 0.739954
vt 0.625000 0.730747
vt 0.625000 0.739954
vt 0.630071 0.739954
vt 0.635046 0.750000
vt 0.644253 0.740361
vt 0.635046 0.739954
vt 0.634639 0.730747
vt 0.644253 0.750000
vt 0.855747 0.740361
vt 0.855747 0.750000
vt 0.855747 0.747428
vt 0.855747 0.750000
vt 0.864954 0.750000
vt 0.864954 0.744929
vt 0.865361 0.730747
vt 0.864954 0.739954
vt 0.865361 0.519253
vt 0.855747 0.509639
vt 0.864954 0.510046
vt 0.644253 0.509639
vt 0.634639 0.519253
vt 0.635046 0.510046
vt 0.625000 0.519253
vt 0.625000 0.510046
vt 0.615361 0.519253
vt 0.605747 0.519253
vt 0.605747 0.509639
vt 0.614954 0.510046
vt 0.605747 0.500000
vt 0.614954 0.500000
vt 0.635046 0.505071
vt 0.635046 0.500000
vt 0.644253 0.502572
vt 0.644253 0.500000
vt 0.644253 0.500000
vt 0.855747 0.500000
vt 0.864954 0.500000
vt 0.872428 0.519253
vt 0.875000 0.519253
vt 0.875000 0.510046
vt 0.869929 0.510046
vt 0.614954 0.250000
vt 0.625000 0.260046
vt 0.605747 0.250000
vt 0.615361 0.230747
vt 0.614954 0.239954
vt 0.605747 0.240361
vt 0.615361 0.019253
vt 0.875000 0.519253
vt 0.875000 0.730747
vt 0.605747 0.009639
vt 0.614954 0.010046
vt 0.875000 0.739954
vt 0.605747 0.000000
vt 0.614954 0.000000
vt 0.625000 0.010046
vt 0.394253 0.009639
vt 0.394253 0.000000
vt 0.394253 0.002572
vt 0.394253 0.000000
vt 0.385046 0.000000
vt 0.385046 0.005071
vt 0.384639 0.019253
vt 0.385046 0.010046
vt 0.384639 0.230747
vt 0.394253 0.240361
vt 0.385046 0.239954
vt 0.394253 0.250000
vt 0.385046 0.250000
vt 0.377572 0.230747
vt 0.375000 0.230747
vt 0.375000 0.239954
vt 0.380071 0.239954
vt 0.385046 0.255071
vt 0.144253 0.519253
vt 0.134639 0.519253
vt 0.135046 0.510046
vt 0.144253 0.509639
vt 0.144253 0.730747
vt 0.134639 0.730747
vt 0.375000 0.230747
vt 0.375000 0.019253
vt 0.375000 0.010046
vt 0.125000 0.739954
vt 0.355747 0.509639
vt 0.364954 0.510046
vn 0.0000 1.0000 0.0000
vn 0.0000 0.0000 -1.0000
vn -1.0000 0.0000 0.0000
vn 0.2585 0.0000 -0.9660
vn 0.2566 0.2566 -0.9318
vn 0.0000 0.2585 -0.9660
vn -0.2566 0.2566 -0.9318
vn -0.2585 0.0000 -0.9660
vn -0.2566 -0.2566 -0.9318
vn 0.0000 -0.2585 -0.9660
vn -0.2178 -0.6901 -0.6901
vn 0.0000 -0.7071 -0.7071
vn 0.2178 -0.6901 -0.6901
vn 0.2566 -0.2566 -0.9318
vn 0.5774 -0.5773 -0.5774
vn 0.6901 -0.2178 -0.6901
vn 0.9318 -0.2566 -0.2566
vn 0.6901 -0.6901 -0.2178
vn 0.9660 -0.2585 0.0000
vn 0.7071 -0.7071 0.0000
vn 0.9318 -0.2566 0.2566
vn 0.6901 -0.6901 0.2178
vn 0.2585 -0.9660 0.0000
vn 0.2566 -0.9318 0.2566
vn 0.2178 -0.6901 0.6901
vn 0.5774 -0.5774 0.5774
vn 0.2566 -0.2566 0.9318
vn 0.6901 -0.2178 0.6901
vn 0.0000 -0.2585 0.9660
vn 0.0000 -0.7071 0.7071
vn -0.2178 -0.6901 0.6901
vn -0.2566 -0.2566 0.9318
vn -0.2585 0.0000 0.9660
vn 0.0000 0.0000 1.0000
vn -0.2566 0.2566 0.9318
vn 0.0000 0.2585 0.9660
vn 0.2566 0.2566 0.9318
vn 0.2585 0.0000 0.9660
vn 0.6901 0.2178 0.6901
vn 0.7071 0.0000 0.7071
vn 0.9660 0.0000 0.2585
vn 0.9318 0.2566 0.2566
vn 0.6901 0.6901 0.2178
vn 0.5773 0.5774 0.5774
vn 0.2566 0.9318 0.2566
vn 0.2178 0.6901 0.6901
vn 0.0000 0.9660 0.2585
vn 0.0000 0.7071 0.7071
vn -0.2178 0.6901 0.6901
vn -0.2566 0.9318 0.2566
vn -0.2585 0.9660 0.0000
vn -0.2566 0.9318 -0.2566
vn 0.0000 0.9660 -0.2585
vn 0.2566 0.9318 -0.2566
vn 0.2585 0.9660 0.0000
vn 0.6901 0.6901 -0.2178
vn 0.7071 0.7071 0.0000
vn 0.9318 0.2566 -0.2566
vn 0.9660 0.2585 0.0000
vn 0.9660 0.0000 -0.2585
vn 1.0000 0.0000 0.0000
vn 0.6901 0.2178 -0.6901
vn 0.7071 0.0000 -0.7071
vn 0.5773 0.5773 -0.5774
vn 0.2178 0.6901 -0.6901
vn 0.0000 0.7071 -0.7071
vn -0.2178 0.6901 -0.6901
vn -0.6901 0.6901 -0.2178
vn -0.5774 0.5774 -0.5774
vn -0.6901 0.2178 -0.6901
vn -0.9318 0.2566 -0.2566
vn -0.9660 0.2585 0.0000
vn -0.7071 0.7071 0.0000
vn -0.9318 0.2566 0.2566
vn -0.6901 0.6901 0.2178
vn -0.6901 0.2178 0.6901
vn -0.5773 0.5774 0.5773
vn -0.9660 0.0000 0.2585
vn -0.7071 0.0000 0.7071
vn -0.6901 -0.2178 0.6901
vn -0.9318 -0.2566 0.2566
vn -0.9660 -0.2585 0.0000
vn -0.9318 -0.2566 -0.2566
vn -0.9660 0.0000 -0.2585
vn -0.6901 -0.2178 -0.6901
vn -0.7071 0.0000 -0.7071
vn -0.6901 -0.6901 -0.2178
vn -0.5774 -0.5773 -0.5774
vn -0.2566 -0.9318 -0.2566
vn -0.2585 -0.9660 0.0000
vn -0.7071 -0.7071 0.0000
vn -0.2566 -0.9318 0.2566
vn -0.6901 -0.6901 0.2178
vn -0.5774 -0.5774 0.5774
vn 0.0000 -0.9660 0.2585
vn 0.0000 -1.0000 0.0000
vn 0.0000 -0.9660 -0.2585
vn 0.2566 -0.9318 -0.2566
usemtl White.005
s off
f 62/1/1 59/2/1 57/3/1 54/4/1
usemtl Orange.005
f 8/5/2 5/6/2 1/7/2 4/8/2
usemtl Green.005
f 84/9/3 78/10/3 76/11/3 86/12/3
usemtl Inner.005
f 2/13/4 17/14/4 4/8/4 1/7/4
f 1/7/5 3/15/5 70/16/5 2/13/5
f 6/17/6 3/15/6 1/7/6 5/6/6
f 5/6/7 7/18/7 73/19/7 6/17/7
f 5/6/8 8/5/8 9/20/8 7/18/8
f 8/5/9 10/21/9 11/22/9 9/20/9
f 13/23/10 10/21/10 8/5/10 4/8/10
f 10/21/11 12/24/11 90/25/11 11/22/11
f 14/26/12 12/24/12 10/21/12 13/23/12
f 14/27/13 13/28/13 15/29/13 16/30/13
f 4/8/14 17/14/14 15/31/14 13/23/14
f 16/30/15 15/29/15 18/32/15
f 17/14/16 19/33/16 18/32/16 15/31/16
f 21/34/17 20/35/17 18/36/17 19/37/17
f 20/35/18 22/38/18 16/39/18 18/36/18
f 23/40/19 20/35/19 21/34/19 24/41/19
f 26/42/20 22/43/20 20/35/20 23/40/20
f 24/41/21 49/44/21 25/45/21 23/40/21
f 26/42/22 23/46/22 25/47/22 28/48/22
f 27/49/23 96/50/23 22/43/23 26/42/23
f 27/49/24 26/42/24 28/48/24 29/51/24
f 32/52/25 29/53/25 28/54/25 30/55/25
f 25/56/26 30/57/26 28/58/26
f 33/59/27 32/60/27 30/61/27 31/62/27
f 49/44/28 31/63/28 30/57/28 25/45/28
f 34/64/29 32/60/29 33/59/29 37/65/29
f 35/66/30 29/51/30 32/67/30 34/68/30
f 35/66/31 34/68/31 36/69/31 95/70/31
f 37/65/32 38/71/32 36/72/32 34/64/32
f 37/65/33 39/73/33 40/74/33 38/71/33
f 33/59/34 42/75/34 39/73/34 37/65/34
f 39/73/35 41/76/35 81/77/35 40/74/35
f 43/78/36 41/76/36 39/73/36 42/75/36
f 42/75/37 44/79/37 45/80/37 43/78/37
f 42/75/38 33/59/38 31/62/38 44/79/38
f 44/79/39 46/81/39 48/82/39 45/80/39
f 44/79/40 31/62/40 49/44/40 46/83/40
f 46/83/41 49/44/41 24/41/41 47/84/41
f 47/84/42 50/85/42 48/86/42 46/83/42
f 50/85/43 52/87/43 51/88/43 48/86/43
f 48/89/44 51/88/44 45/90/44
f 54/4/45 53/91/45 51/92/45 52/93/45
f 53/91/46 43/94/46 45/90/46 51/92/46
f 54/4/47 57/3/47 55/95/47 53/91/47
f 53/91/48 55/95/48 41/96/48 43/94/48
f 41/97/49 55/98/49 56/99/49 81/100/49
f 57/3/50 58/101/50 56/102/50 55/95/50
f 57/3/51 59/2/51 60/103/51 58/101/51
f 59/2/52 61/104/52 71/105/52 60/103/52
f 59/2/53 62/1/53 63/106/53 61/104/53
f 62/1/54 64/107/54 65/108/54 63/106/54
f 62/1/55 54/4/55 52/93/55 64/107/55
f 64/107/56 66/109/56 67/110/56 65/108/56
f 64/107/57 52/93/57 50/85/57 66/111/57
f 68/112/58 69/113/58 67/114/58 66/111/58
f 66/111/59 50/85/59 47/84/59 68/112/59
f 68/112/60 21/34/60 19/37/60 69/113/60
f 21/34/61 68/112/61 47/84/61 24/41/61
f 69/113/62 2/115/62 70/116/62 67/114/62
f 69/113/63 19/37/63 17/14/63 2/13/63
f 70/117/64 65/118/64 67/110/64
f 3/119/65 63/120/65 65/118/65 70/117/65
f 61/104/66 63/106/66 3/121/66 6/122/66
f 61/104/67 6/122/67 73/123/67 71/105/67
f 75/124/68 60/125/68 71/126/68 72/127/68
f 73/19/69 72/128/69 71/129/69
f 7/18/70 74/130/70 72/128/70 73/19/70
f 76/11/71 75/131/71 72/132/71 74/133/71
f 77/134/72 75/131/72 76/11/72 78/10/72
f 58/101/73 60/103/73 75/135/73 77/136/73
f 78/10/74 80/137/74 79/138/74 77/134/74
f 58/101/75 77/136/75 79/139/75 56/102/75
f 80/137/76 40/140/76 81/141/76 79/138/76
f 79/138/77 81/141/77 56/142/77
f 82/143/78 80/137/78 78/10/78 84/9/78
f 38/144/79 40/140/79 80/137/79 82/143/79
f 38/145/80 82/146/80 83/147/80 36/148/80
f 84/9/81 85/149/81 83/150/81 82/143/81
f 87/151/82 85/149/82 84/9/82 86/12/82
f 86/12/83 88/152/83 89/153/83 87/151/83
f 74/133/84 88/152/84 86/12/84 76/11/84
f 88/152/85 9/154/85 11/155/85 89/153/85
f 7/18/86 9/20/86 88/152/86 74/133/86
f 91/156/87 87/157/87 89/158/87 90/159/87
f 89/160/88 11/155/88 90/25/88
f 92/161/89 91/162/89 90/163/89 12/164/89
f 92/161/90 94/165/90 93/166/90 91/162/90
f 91/167/91 93/168/91 85/149/91 87/151/91
f 94/165/92 35/66/92 95/70/92 93/166/92
f 85/149/93 93/168/93 95/169/93 83/150/93
f 95/70/94 36/69/94 83/170/94
f 94/165/95 27/49/95 29/51/95 35/66/95
f 92/161/96 96/50/96 27/49/96 94/165/96
f 96/50/97 92/161/97 12/164/97 14/171/97
f 96/50/98 14/171/98 16/172/98 22/43/98
